<svg xmlns="http://www.w3.org/2000/svg" xmlns:xlink="http://www.w3.org/1999/xlink" width="186.707" height="48" viewBox="0 0 186.707 48"><defs><linearGradient id="a" x1="0.5" x2="0.5" y2="1" gradientUnits="objectBoundingBox"><stop offset="0" stop-color="#ebebeb"/><stop offset="1" stop-color="#b3b3b3" stop-opacity="0.961"/></linearGradient><clipPath id="b"><path d="M1742.367,488.021h-7.589V497.4h7.589a4.691,4.691,0,0,0,0-9.382M1720.9,477.812h5.486v7.411H1720.9a3.705,3.705,0,0,1,0-7.411Zm33.681-14.2h-17.006v2.8h14.209v42.4h-22.6v-33.8H1720.9a6.492,6.492,0,0,0-4.906,10.755,7.49,7.49,0,0,0,2.8,14.43h4.791v-2.8H1718.8a4.691,4.691,0,0,1,0-9.382h7.589v23.586h28.2Zm-19.8,2.8v18.818h5.486a3.705,3.705,0,0,0,0-7.411h-2.688v-2.8h2.688a6.493,6.493,0,0,1,4.907,10.755,7.49,7.49,0,0,1-2.8,14.43h-10.386V466.4h-22.6v42.4h14.208v2.8h-17.006v-48h28.2v2.8Z" transform="translate(-1706.582 -463.607)" fill="url(#a)" clip-rule="evenodd"/></clipPath><linearGradient id="d" x1="0.5" x2="0.5" y2="1" gradientUnits="objectBoundingBox"><stop offset="0" stop-color="#a2a2a2"/><stop offset="1" stop-color="#ebebeb"/></linearGradient></defs><g transform="translate(-115 -17)"><g transform="translate(70)"><g transform="translate(-579 -2584)"><g transform="translate(425.884 2155.717)"><g transform="translate(198.116 445.283)"><g transform="translate(0 0)"><g clip-path="url(#b)"><rect width="48" height="48" transform="translate(0)" fill="url(#a)"/></g></g></g></g></g></g><g transform="translate(-225.752 0.06)"><path d="M6.616-12.832v-6.407h3.695a3.188,3.188,0,0,1,3.39,3.22,3.145,3.145,0,0,1-3.39,3.186Zm3.695,3.22c2.983,0,4.373,2.034,4.373,3.8s-1.356,3.763-4.373,3.763H6.616V-9.611ZM17.4-15.984c0-4.068-3.152-6.542-7.085-6.542H2.752V1.338h7.491c4.2,0,8.169-2.136,8.169-7.051a6.059,6.059,0,0,0-3.864-5.729A4.911,4.911,0,0,0,17.4-15.984Zm7.83,8.745A5.208,5.208,0,0,1,30.514-12.8a5.148,5.148,0,0,1,5.254,5.559c0,3.8-2.644,5.627-5.254,5.627A5.268,5.268,0,0,1,25.226-7.238Zm14.237,0a8.725,8.725,0,0,0-8.949-8.915,8.773,8.773,0,0,0-8.983,8.915A8.821,8.821,0,0,0,30.514,1.71,8.773,8.773,0,0,0,39.463-7.238Zm9.932-2.136-4.068-6.508h-4.3l5.763,8.61L40.92,1.338h3.966l4.474-6.508L53.7,1.338h4.034L51.9-7.272l5.763-8.61h-4Zm15.694-3.458v-6.407h3.695a3.188,3.188,0,0,1,3.39,3.22,3.145,3.145,0,0,1-3.39,3.186Zm3.695,3.22c2.983,0,4.373,2.034,4.373,3.8S71.8-2.052,68.784-2.052H65.089V-9.611Zm7.085-6.373c0-4.068-3.152-6.542-7.085-6.542H61.225V1.338h7.491c4.2,0,8.169-2.136,8.169-7.051a6.059,6.059,0,0,0-3.864-5.729A4.911,4.911,0,0,0,75.868-15.984ZM98.478-22.56H93.969L88.41-12.187,82.783-22.56H78.343L86.478-8.221V1.338h3.83V-8.188ZM114.138-2.222h-8.712V-22.391h-3.9V1.338h12.61Zm11.8-20.338h-8.1v23.9h8.135c8.2.034,11.491-6.2,11.491-12.271C137.46-16.8,133.8-22.594,125.935-22.56Zm0,20.372H121.7V-19H126c5.356,0,7.627,4.135,7.627,8.339C133.629-6.391,131.528-2.086,125.935-2.188Z" transform="translate(390 54)" fill="url(#d)"/></g></g></svg>